# xmcd
#
# Track frame offsets:
#	150
#	22220
#	41983
#	57724
#	72290
#	90849
#	112467
#	128215
#	145956
#	165567
#	183986
#	200278
#	221651
#	245770
#	263400
#	283252
#	300673
#	318061
#
# Disc length: 4345 seconds
#
# Revision: 0
# Processed by: cddbd v1.4PL0 Copyright (c) Steve Scherf et al.
# Submitted via: dBpowerAMP V4.0
#
DISCID=1710f712
DTITLE=Original Storyville Jazzband Vienna - St. Louis Blues
DYEAR=1900
DGENRE=
TTITLE0=St. Louis Blues
TTITLE1=Charlotte (Rosetta)
TTITLE2=Sister Kate
TTITLE3=No One Else But You
TTITLE4=Mimi
TTITLE5=Carry Me Back To Old Virginny
TTITLE6=Really The Blues
TTITLE7=Sidewalk Blues
TTITLE8=High Society
TTITLE9=Corinne, Corinna
TTITLE10=Sunday
TTITLE11=In The Evening
TTITLE12=Tiger Rag
TTITLE13=Baby Won't You Please Come Home
TTITLE14=When You're Smiling
TTITLE15=Love Song Of The Nile
TTITLE16=Bourban Street Parade
TTITLE17=Jamaica March
EXTD=Excellent blues band from Vienna, Austria.
EXTT0=
EXTT1=
EXTT2=
EXTT3=
EXTT4=
EXTT5=
EXTT6=
EXTT7=
EXTT8=
EXTT9=
EXTT10=
EXTT11=
EXTT12=
EXTT13=
EXTT14=
EXTT15=
EXTT16=
EXTT17=
PLAYORDER=
